<svg width="37" height="44" viewBox="0 0 37 44" fill="none" xmlns="http://www.w3.org/2000/svg">
<path d="M23.1249 43.9998C24.6064 43.9998 25.8982 42.7169 25.8982 41.2457V34.8137H27.75C28.8612 34.8137 29.6018 34.0779 29.6018 32.9747V14.6039H7.39811V32.9749C7.39811 34.0782 8.13886 34.8138 9.24989 34.8138H11.1018V41.2459C11.1018 42.717 12.3934 44 13.8751 44C15.3564 44 16.6482 42.717 16.6482 41.2459V34.8138H20.3518V41.2459C20.3516 42.7169 21.6435 43.9998 23.1249 43.9998Z" fill="white"/>
<path d="M34.227 32.9749C35.7084 32.9749 37 31.6921 37 30.2207V17.3568C37 15.8934 35.7085 14.6039 34.227 14.6039C32.7454 14.6039 31.4537 15.8935 31.4537 17.3568V30.2207C31.4537 31.6919 32.7453 32.9749 34.227 32.9749Z" fill="white"/>
<path d="M2.77304 32.9749C4.25462 32.9749 5.54634 31.6921 5.54634 30.2207V17.3568C5.54634 15.8934 4.25479 14.6039 2.77304 14.6039C1.29163 14.6039 0 15.8935 0 17.3568V30.2207C8.65357e-05 31.6919 1.29163 32.9749 2.77304 32.9749Z" fill="white"/>
<path d="M27.3795 0.27747C27.0093 -0.0924899 26.4581 -0.0924899 26.0879 0.27747L23.4897 2.84931C22.017 2.11696 20.3658 1.75121 18.5271 1.74768C18.5181 1.74768 18.5092 1.74743 18.5002 1.74743C18.4909 1.74743 18.482 1.74768 18.4728 1.74768C16.6342 1.75121 14.9831 2.11696 13.5105 2.84931L10.912 0.27747C10.5415 -0.0924899 9.99064 -0.0924899 9.62044 0.27747C9.24998 0.645367 9.24998 1.19141 9.62044 1.55905L12.0229 3.94536C11.2488 4.45866 10.5468 5.08677 9.93638 5.80521C8.47496 7.5255 7.54271 9.76442 7.41456 12.1903C7.41334 12.2155 7.41083 12.2404 7.40971 12.2657C7.40183 12.4309 7.3982 12.5969 7.3982 12.7636H29.6018C29.6018 12.597 29.5978 12.431 29.5903 12.2657C29.5891 12.2404 29.5866 12.2155 29.5851 12.1903C29.4572 9.76442 28.5248 7.52541 27.0633 5.80538C26.4531 5.08695 25.7509 4.45883 24.9767 3.94553L27.3795 1.55922C27.75 1.19141 27.75 0.645453 27.3795 0.27747ZM13.8716 9.55276C13.1055 9.55276 12.4843 8.93599 12.4843 8.1751C12.4843 7.41421 13.1054 6.79744 13.8716 6.79744C14.6377 6.79744 15.2588 7.41421 15.2588 8.1751C15.2588 8.93599 14.6377 9.55276 13.8716 9.55276ZM23.1283 9.55276C22.3622 9.55276 21.7411 8.93599 21.7411 8.1751C21.7411 7.41421 22.3621 6.79744 23.1283 6.79744C23.8944 6.79744 24.5156 7.41421 24.5156 8.1751C24.5156 8.93599 23.8945 9.55276 23.1283 9.55276Z" fill="white"/>
</svg>
