<svg width="34" height="44" viewBox="0 0 34 44" fill="none" xmlns="http://www.w3.org/2000/svg">
<path d="M23.3678 6.68713C25.0074 4.91468 26.1164 2.45387 25.8128 0C23.4507 0.0851211 20.5879 1.40012 18.8924 3.17242C17.3725 4.74142 16.0418 7.24902 16.3969 9.65475C19.0327 9.8348 21.7255 8.45672 23.3678 6.68713ZM28.3983 23.6336C28.3479 18.1323 32.7116 15.4901 32.9049 15.3624C30.4516 11.6266 26.6309 11.1154 25.2701 11.0577C22.0168 10.7129 18.9266 13.0472 17.2749 13.0472C15.6299 13.0472 13.0854 11.103 10.3872 11.1552C6.83994 11.2142 3.57147 13.3 1.74966 16.6057C-1.93521 23.2559 0.805203 33.1071 4.39591 38.5013C6.15121 41.142 8.24116 44.1043 10.9856 43.9972C13.6349 43.89 14.6336 42.2179 17.8298 42.2179C21.0275 42.2179 21.9228 43.9972 24.7203 43.9436C27.5668 43.89 29.3683 41.252 31.1086 38.603C33.1224 35.5405 33.9525 32.5754 34 32.4257C33.9389 32.3899 28.4567 30.2122 28.3983 23.6336Z" fill="white"/>
</svg>
